/* XPM */
static char *djvulibre_djview4[] = {
/* columns rows colors chars-per-pixel */
"32 32 256 2 ",
"   c #2F3B62",
".  c #3D3165",
"X  c #783C54",
"o  c #5B2E62",
"O  c #443067",
"+  c #4E336E",
"@  c #563066",
"#  c #55336B",
"$  c #5B316A",
"%  c #4E3977",
"&  c #453B7C",
"*  c #4D3B7A",
"=  c #523572",
"-  c #5A3776",
";  c #672B61",
":  c #64326D",
">  c #78306D",
",  c #713576",
"<  c #29436E",
"1  c #2C4671",
"2  c #7E475E",
"3  c #764D5E",
"4  c #7D495F",
"5  c #6E575F",
"6  c #68585A",
"7  c #71525E",
"8  c #6B5B61",
"9  c #645364",
"0  c #735F67",
"q  c #765966",
"w  c #6F6267",
"e  c #6D6D6D",
"r  c #7D616C",
"t  c #757575",
"y  c #7C7C7C",
"u  c #7B7875",
"i  c #BD7C1C",
"p  c #AA732A",
"a  c #B67A2F",
"s  c #C27D21",
"d  c #802A5E",
"f  c #932A58",
"g  c #883F5D",
"h  c #823853",
"j  c #923057",
"k  c #922D6A",
"l  c #8F3D62",
"z  c #973562",
"x  c #993967",
"c  c #9B3C68",
"v  c #863275",
"b  c #A12D63",
"n  c #A6376C",
"m  c #A12F72",
"M  c #967040",
"N  c #BC6648",
"B  c #854361",
"V  c #8B4866",
"C  c #895E6E",
"Z  c #A2406E",
"A  c #8B6C6D",
"S  c #8A6374",
"D  c #94637A",
"F  c #936A7C",
"G  c #89737D",
"H  c #BE822E",
"J  c #D9890C",
"K  c #C5841A",
"L  c #D78911",
"P  c #DC8C11",
"I  c #DE931E",
"U  c #C3892C",
"Y  c #D69D3C",
"T  c #EEAF3D",
"R  c #B08B53",
"E  c #A08B7E",
"W  c #C38F45",
"Q  c #D0A86F",
"!  c #D1AB72",
"~  c #EDC574",
"^  c #F1CC73",
"/  c #3E3F80",
"(  c #643C80",
")  c #7A3F80",
"_  c #314586",
"`  c #3C4282",
"'  c #405599",
"]  c #485B9D",
"[  c #585997",
"{  c #794B89",
"}  c #725E89",
"|  c #57609F",
" . c #5A62A3",
".. c #6565A2",
"X. c #7E6DA2",
"o. c #864181",
"O. c #8C558A",
"+. c #955D83",
"@. c #976B89",
"#. c #857F81",
"$. c #8B7B83",
"%. c #8A6D98",
"&. c #7788A3",
"*. c #858484",
"=. c #8B8B8B",
"-. c #99858C",
";. c #86869E",
":. c #9D8A93",
">. c #929292",
",. c #9B9B9B",
"<. c #A49495",
"1. c #8C8DA3",
"2. c #9292A7",
"3. c #9A9BAD",
"4. c #9595A9",
"5. c #9F9FB1",
"6. c #959FBC",
"7. c #9FA0B3",
"8. c #9EA5B9",
"9. c #ABA9A9",
"0. c #A7A4A5",
"q. c #B0AEAE",
"w. c #B6A9A6",
"e. c #A0A0B3",
"r. c #AFAFBF",
"t. c #A5AABE",
"y. c #AFB0BF",
"u. c #B3B3B3",
"i. c #BBBBBB",
"p. c #CBAF83",
"a. c #DCBA87",
"s. c #BAD5A9",
"d. c #F5D181",
"f. c #FDDE80",
"g. c #CEC7BE",
"h. c #C8E2BD",
"j. c #C3F0BE",
"k. c #94A6C6",
"l. c #97A8C8",
"z. c #98A9C9",
"x. c #9BA7C4",
"c. c #A6ADC3",
"v. c #AEB1C0",
"b. c #A5B3C6",
"n. c #B2B2C1",
"m. c #BABAC7",
"M. c #B5BBCA",
"N. c #BEBECB",
"B. c #AFBED4",
"V. c #81B6E0",
"C. c #84BCE5",
"Z. c #8DC0DE",
"A. c #9AC9DD",
"S. c #9EDCDA",
"D. c #B9C3CF",
"F. c #A9CDDB",
"G. c #A2CADA",
"H. c #B3CDDA",
"J. c #B7DCDD",
"K. c #A9E6DD",
"L. c #8AC3EB",
"P. c #93C6E1",
"I. c #97CAEC",
"U. c #9DD2ED",
"Y. c #95CBF5",
"T. c #9BCAF3",
"R. c #9DD1F7",
"E. c #9ED6F8",
"W. c #A4CDEA",
"Q. c #A8CEEB",
"!. c #B5CEEA",
"~. c #A5D2E2",
"^. c #ACD6E5",
"/. c #A2D1EA",
"(. c #A6D8EC",
"). c #B3DAE4",
"_. c #B3DBEC",
"`. c #B4D5E7",
"'. c #A3D4F4",
"]. c #A3D9F5",
"[. c #ADDDF3",
"{. c #A2DAF9",
"}. c #AADDFA",
"|. c #B3DFF0",
" X c #B5D8F5",
".X c #A9E2EF",
"XX c #A9E2E2",
"oX c #B7E1EC",
"OX c #B5E5E3",
"+X c #B8F2E6",
"@X c #ADE1FA",
"#X c #BDE6F1",
"$X c #B4E4FA",
"%X c #BCE9FA",
"&X c #BAE5F5",
"*X c #C3C3C3",
"=X c #C7C8CA",
"-X c #CBCBCB",
";X c #C7C7D2",
":X c #CBCBD4",
">X c #D6D6D6",
",X c #D3D4DC",
"<X c #DDDDDE",
"1X c #D4DBDC",
"2X c #ECDCC1",
"3X c #D1EECC",
"4X c #CDE0D1",
"5X c #DCEBD6",
"6X c #D0EFDF",
"7X c #C5F9D6",
"8X c #C7F9D8",
"9X c #C9F7D7",
"0X c #D2F4DB",
"qX c #FCF3C5",
"wX c #C4CFE2",
"eX c #CCDAED",
"rX c #CCD5E0",
"tX c #DCDDE4",
"yX c #D3DDEB",
"uX c #C7E1E9",
"iX c #CCE5EB",
"pX c #C0EFE8",
"aX c #CDEDED",
"sX c #C8E2E6",
"dX c #DCE1E6",
"fX c #DBE2EE",
"gX c #D0EFEF",
"hX c #CAFAEA",
"jX c #C4F5E7",
"kX c #C1E4F1",
"lX c #CDE2F1",
"zX c #C4EAF4",
"xX c #CBEDF1",
"cX c #C2EDFB",
"vX c #D2EFF3",
"bX c #DFEDF0",
"nX c #D3E0F0",
"mX c #C6F0FC",
"MX c #CBF3FB",
"NX c #D4F3F3",
"BX c #DBF2F4",
"VX c #D4FAFB",
"CX c #DAFBFB",
"ZX c #D5F0F9",
"AX c #E4E4E4",
"SX c #EBEBEB",
"DX c #EEEEF2",
"FX c #EBF4F6",
"GX c #E5F7F8",
"HX c #E3FBFB",
"JX c #EAFBFC",
"KX c #F4F4F4",
"LX c #F7F7F8",
"PX c #F3FCFC",
"IX c #FFFFFF",
"UX c None",
/* pixels */
"UXUXUXUXUX.   UXUXUXUXUXUXUXUXUXUXUXUXUXUXUXUXUXUXUXUXUXUXUXUXUX",
"UXUXUXUXf <.<XSXDXKXDXSX<Xi.,.9 6 u t e UXUXUXUXUXUXUXUXUXUXUXUX",
"UXUXUXO h IXIXIXIXIXIXIXIXIXIXDX5X5XIXIXIXAX-X9.G X UXUXUXUXUXUX",
"UXUXUXo C IXIXIXIXIXIXIXIXIXIXSXh.3XIXIXIXIXIXIXIXLXt X ; UXUXUX",
"UXUXUX; -.IXIXIXIXIXIXIXIXIXIX<Xs.j.IXIXIXIXIXIXIXIX*.8 o UXUXUX",
"UXUXUXd 9.IXIXIXIXIXIXDXSXfXyXyX1X4XLXIXIXIXIXIXIXIX*.8 o UXUXUX",
"UXUXUXf -XIXIXIXIXKXfX XT.R.].'.'.|.yXtXIXIXIXIXIXIXy 8 $ UXUXUX",
"UXUXUXj SXIXIXIXDXeXY.E.{.{.}.'.(..X$XlX,XIXIXIXIXIXu 5 $ UXUXUX",
"UXUX+ g IXIXIXDXeXY.{.@X$X$X%X[.S.XXcX%XlX,XIXIXIXIXt 7 $ UXUXUX",
"UXUX: F IXIXIXtXY.E.@X%XcXmX%X%XK.OXMXMXmXrXDXIXIXLXt 7 # UXUXUX",
"UXUX> :.IXwXk.!.Y.{.}.cX_.zX~.kX+X+XoXoXVXZX;XIXIXLXy 3 = UXUXUX",
"UXUXk q.LXk.x.T.Y.].U.zXkXZXP.~.hXjXA.).).VXM.&.IXDXy 3 = UXUXUX",
"UXUXb =XLXx.c.T.E.}.U.&X`.#XoX~.hXOXF.xXG.CXM.< KXDXy 4 = UXUXUX",
"UX& z >XLXl.c.Y.].@XV./.Z.#XVX`.hX).uXBXF.CXD.1 KXSXy 2 % UXUXUX",
"UX- V AXLXx.6.I.L.C.I.|.P.xXNXxXjXJ.GXJXH.sX8.< KXAX*.B % UXUXUX",
"UX, S AXKXdXy.W.U././.P.~.VXNXHX7X6XPXPXFXbX3.=XLX<X*.B & UXUXUX",
"UXv G AXKXKX<XB.].$X|.^.zXVXNXHX7X0XPXIXPXyXn.LXLX<X*.l * UXUXUX",
"UXn >.SXSXDXKXy.Q.$X%XmXVXCXaXGX7X9XPXLXDXe.SXKXLX>X=.l & UXUXUX",
"UXn ,.DXDXSXDXAXt.Q.%X%XMXVXaXCX7X9XPXFXM.e.n.KXDX>X=.z ` UXUXUX",
"* c u.SXDXSXSXDX,X8.`.#XMXVXaXHXHXGXbXy.e.r.M.DX2X-X=.c / UXUXUX",
"( V i.SXSXSXSXSXDX>X5.b.`.xXxXgXiXD.1.y.N.>X:X! I ! =.c ` UXUXUX",
") r *XSXSXSXSXSXSXSXSX:X5.4.;.2.2.m.SXSXSX,Xa.^ T P R Z _ UXUXUX",
"o.q *.=.=.=.,.,.,.9.i.-XAXSX*XSXSXSXSXSXSX! ^ qXd.T P N _ UXUXUX",
"UX{ { O.O.+.+.D F C r 0 w *.*.*.=.>.0.q.*Xg.Y f.qXd.T P M UXUXUX",
"UXUXUXUXUXUXUXUXUXUX] | .. . .X.%.%.@.@.F F A U f.qXd.T L s UXUX",
"UXUXUXUXUXUXUXUXUXUXUXUXUXUXUXUXUXUXUXUXUX' [ } H f.qXd.T P i UX",
"UXUXUXUXUXUXUXUXUXUXUXUXUXUXUXUXUXUXUXUXUXUXUXUXUXK f.qXd.T L a ",
"UXUXUXUXUXUXUXUXUXUXUXUXUXUXUXUXUXUXUXUXUXUXUXUXUXUXK f.qX^ W -.",
"UXUXUXUXUXUXUXUXUXUXUXUXUXUXUXUXUXUXUXUXUXUXUXUXUXUXUXK f.p.w.;.",
"UXUXUXUXUXUXUXUXUXUXUXUXUXUXUXUXUXUXUXUXUXUXUXUXUXUXUXUXp <.1.UX",
"UXUXUXUXUXUXUXUXUXUXUXUXUXUXUXUXUXUXUXUXUXUXUXUXUXUXUXUXUXUXUXUX",
"UXUXUXUXUXUXUXUXUXUXUXUXUXUXUXUXUXUXUXUXUXUXUXUXUXUXUXUXUXUXUXUX"
};
